<?xml version="1.0" standalone="no"?>
<!DOCTYPE svg PUBLIC "-//W3C//DTD SVG 20010904//EN"
 "http://www.w3.org/TR/2001/REC-SVG-20010904/DTD/svg10.dtd">
<svg version="1.0" xmlns="http://www.w3.org/2000/svg"
 width="1343.000000pt" height="1203.000000pt" viewBox="0 0 1343.000000 1203.000000"
 preserveAspectRatio="xMidYMid meet">
<metadata>
Created by potrace 1.16, written by Peter Selinger 2001-2019
</metadata>
<g transform="translate(0.000000,1203.000000) scale(0.100000,-0.100000)"
fill="#FFFFFF" fill-rule="evenodd" stroke="none">
<path d="M0 6015 l0 -6015 6715 0 6715 0 0 6015 0 6015 -6715 0 -6715 0 0
-6015z m9266 4552 c272 -140 424 -234 424 -261 0 -33 -12 -42 -60 -50 -58 -9
-476 -87 -1360 -256 -474 -91 -460 -89 -620 -79 -483 31 -789 51 -885 59 -60
6 -252 19 -425 30 -173 11 -457 29 -630 40 -173 11 -430 29 -570 40 -140 11
-410 29 -600 41 -190 11 -351 26 -357 31 -7 6 -13 23 -13 38 0 25 17 39 153
127 183 120 198 129 405 232 l163 82 112 -4 c62 -2 276 -15 477 -30 201 -14
466 -33 590 -42 124 -8 387 -26 585 -40 198 -14 461 -32 585 -40 124 -8 288
-20 365 -25 l140 -11 470 90 c259 50 508 99 555 110 53 12 125 20 191 20 l106
1 199 -103z m1492 -1174 c50 -60 110 -132 134 -162 24 -29 54 -66 67 -83 17
-20 25 -42 25 -71 l1 -42 -985 -246 c-1837 -459 -2405 -600 -2535 -630 l-130
-30 -380 41 c-209 23 -479 52 -600 66 -469 52 -1307 145 -1665 184 -206 22
-474 52 -595 65 -121 14 -330 36 -465 50 -135 14 -354 39 -487 55 -134 17
-272 30 -308 30 -53 0 -66 3 -75 19 -15 28 -12 67 5 81 8 7 24 31 36 54 11 22
68 111 127 196 l107 155 100 3 c61 2 133 -3 185 -12 47 -9 195 -27 330 -41
236 -24 470 -49 1060 -115 151 -17 361 -39 465 -50 105 -11 222 -24 260 -30
39 -5 180 -21 315 -35 135 -14 342 -36 460 -50 315 -36 742 -82 927 -100 l162
-16 143 35 c79 19 242 59 363 90 121 31 657 164 1190 296 534 133 1015 252
1070 267 55 14 154 38 220 54 66 16 161 40 210 53 50 14 108 25 131 25 39 1
43 -2 132 -106z m454 -630 c14 -16 63 -95 109 -178 68 -123 83 -158 83 -195
l1 -44 -65 -27 c-36 -14 -744 -252 -1575 -528 -830 -277 -1575 -525 -1655
-553 -80 -27 -355 -119 -612 -204 -257 -85 -470 -159 -473 -163 -3 -5 -48
-233 -100 -507 -53 -275 -113 -589 -135 -699 -22 -110 -60 -308 -84 -440 -25
-132 -68 -352 -95 -490 -28 -137 -57 -293 -66 -345 -9 -52 -25 -133 -35 -180
-11 -47 -35 -170 -55 -275 -50 -263 -219 -1141 -380 -1970 -41 -214 -80 -421
-86 -460 -15 -97 -41 -155 -71 -155 -45 0 -443 120 -462 140 -23 23 -32 -29
109 690 171 881 212 1089 269 1390 30 157 80 416 111 575 51 265 149 776 211
1099 13 71 42 220 64 330 146 736 240 1250 230 1260 -12 12 -156 29 -530 61
-162 14 -333 30 -380 35 -47 6 -197 19 -335 30 -137 11 -302 27 -365 35 -63 8
-180 19 -260 25 -80 6 -338 29 -575 51 -236 22 -554 51 -705 64 -151 14 -374
34 -495 45 -121 11 -298 27 -394 36 -182 16 -221 25 -221 47 0 54 118 458 140
481 18 19 24 18 307 -8 158 -15 484 -44 723 -66 239 -21 482 -44 540 -49 58
-6 175 -18 260 -26 85 -8 270 -24 410 -35 140 -11 289 -25 330 -30 41 -5 181
-19 310 -30 129 -11 300 -27 380 -35 80 -8 224 -22 320 -30 96 -8 324 -29 505
-46 l330 -32 155 51 c255 84 783 256 965 315 94 30 391 127 660 215 791 258
1273 415 1545 502 140 45 347 113 460 150 113 38 279 91 370 119 91 29 179 58
195 66 49 23 88 19 117 -12z m389 -773 c9 -19 35 -93 59 -165 23 -71 49 -143
56 -158 8 -16 14 -54 14 -86 0 -56 -1 -57 -34 -69 -19 -7 -247 -118 -508 -246
-260 -128 -1006 -495 -1658 -816 -652 -320 -1191 -588 -1198 -595 -8 -7 -53
-156 -102 -331 -48 -175 -115 -413 -148 -529 -33 -115 -124 -437 -202 -715
-78 -278 -208 -741 -290 -1030 -229 -808 -339 -1200 -458 -1625 l-110 -390
-148 -2 c-102 -2 -185 3 -264 15 l-115 17 -3 41 c-2 26 10 86 32 160 19 66 71
252 116 414 45 162 117 421 160 575 43 154 106 381 140 505 34 124 79 284 100
355 21 72 52 182 70 245 17 63 47 171 66 239 20 68 48 171 64 230 16 58 47
169 68 246 103 368 156 560 222 795 155 554 181 645 255 910 42 151 82 280 88
286 7 6 136 71 287 144 151 73 446 216 655 318 209 101 434 210 500 242 66 32
203 98 305 147 102 50 322 157 490 238 542 262 1162 563 1290 627 76 38 104
47 140 45 41 -2 46 -5 61 -37z m-9168 -1140 c221 -61 535 -144 697 -187 151
-39 762 -201 915 -243 77 -20 433 -115 790 -210 358 -95 656 -177 664 -184 15
-12 16 3 -24 -456 -33 -377 -79 -913 -110 -1290 -14 -168 -30 -341 -35 -385
-5 -44 -21 -226 -35 -405 -14 -179 -29 -361 -35 -405 -5 -44 -16 -172 -25
-285 -16 -211 -41 -494 -75 -868 -11 -117 -20 -234 -20 -259 l0 -45 -54 4
c-43 4 -94 24 -245 98 -106 52 -198 101 -207 111 -13 14 -12 51 11 330 51 635
66 807 80 954 9 83 26 287 40 455 34 431 71 869 95 1120 11 118 32 352 45 520
14 168 28 333 31 366 l7 62 -34 10 c-44 15 -1363 347 -1497 378 -57 13 -155
37 -217 54 -62 16 -329 84 -592 150 -263 66 -486 123 -495 126 -16 5 -18 21
-18 157 0 133 18 325 36 380 8 26 44 20 307 -53z m9476 -154 c10 -25 31 -342
31 -464 0 -69 -2 -76 -29 -100 -16 -15 -98 -63 -182 -107 -84 -44 -178 -95
-208 -114 -31 -18 -83 -48 -116 -65 -60 -32 -440 -241 -980 -539 -537 -296
-477 -258 -503 -319 -13 -29 -134 -327 -269 -663 -136 -335 -284 -702 -331
-815 -46 -113 -92 -227 -102 -255 -10 -27 -53 -133 -95 -235 -43 -102 -88
-212 -101 -245 -12 -33 -55 -139 -94 -235 -40 -96 -83 -202 -95 -235 -13 -33
-94 -233 -180 -445 -119 -293 -162 -389 -181 -403 -40 -30 -478 -136 -561
-137 -41 0 -43 1 -43 31 0 17 86 242 191 502 106 260 211 519 234 577 61 152
258 640 395 975 103 253 283 698 495 1225 52 128 164 404 298 735 28 68 46 81
262 195 66 34 152 81 190 104 39 24 114 66 168 95 109 58 226 122 427 233 74
41 160 88 190 105 30 16 249 137 485 268 237 131 468 258 515 283 47 24 92 51
100 58 8 8 29 14 47 14 26 0 36 -5 42 -24z m-9664 -868 c39 -15 115 -43 170
-64 55 -20 138 -50 185 -66 47 -16 211 -75 365 -133 687 -255 880 -325 897
-325 48 0 47 17 78 -1046 16 -550 35 -1147 42 -1329 7 -181 13 -384 13 -450
l0 -120 -27 -3 c-21 -3 -54 20 -175 122 -81 69 -191 167 -244 218 l-96 93 -12
190 c-13 211 -26 675 -41 1405 l-10 485 -23 21 c-13 11 -120 55 -238 97 -118
42 -349 126 -514 187 -165 61 -333 121 -374 134 -43 13 -80 31 -87 42 -21 31
-74 435 -74 562 0 21 79 12 165 -20z m9453 -1180 c-16 -132 -312 -794 -427
-953 -32 -44 -104 -156 -161 -250 -105 -175 -228 -348 -334 -470 -263 -304
-577 -595 -873 -808 -134 -98 -167 -117 -197 -117 -34 0 -36 2 -36 33 0 21 8
41 20 52 11 10 20 23 20 28 0 5 32 61 70 123 39 63 70 116 70 119 0 3 41 71
91 152 50 80 103 169 118 197 15 28 44 78 65 111 20 33 53 87 73 120 19 33
153 258 298 500 144 242 274 463 288 491 31 60 36 65 407 361 157 125 320 255
363 290 63 51 84 63 114 63 l36 0 -5 -42z"/>
</g>
</svg>
