<?xml version="1.0" standalone="no"?>
<svg xmlns="http://www.w3.org/2000/svg" width="985.0pt" height="985.0pt" viewBox="208.0 115.0 985.0 985.0">
<g transform="translate(0.000000,1203.000000) scale(0.100000,-0.100000)">
<path d="M8770 10649 c-47 -11 -296 -60 -555 -110 l-470 -90 -140 11 c-77 5
-241 17 -365 25 -124 8 -387 26 -585 40 -198 14 -461 32 -585 40 -124 9 -389
28 -590 42 -201 15 -415 28 -477 30 l-112 4 -163 -82 c-207 -103 -222 -112
-405 -232 -136 -88 -153 -102 -153 -127 0 -15 6 -32 13 -38 6 -5 167 -20 357
-31 190 -12 460 -30 600 -41 140 -11 397 -29 570 -40 173 -11 457 -29 630 -40
173 -11 365 -24 425 -30 96 -8 402 -28 885 -59 160 -10 146 -12 620 79 884
169 1302 247 1360 256 48 8 60 17 60 50 0 27 -152 121 -424 261 l-199 103
-106 -1 c-66 0 -138 -8 -191 -20z M10495 9474 c-49 -13 -144 -37 -210 -53 -66
-16 -165 -40 -220 -54 -55 -15 -536 -134 -1070 -267 -533 -132 -1069 -265
-1190 -296 -121 -31 -284 -71 -363 -90 l-143 -35 -162 16 c-185 18 -612 64
-927 100 -118 14 -325 36 -460 50 -135 14 -276 30 -315 35 -38 6 -155 19 -260
30 -104 11 -314 33 -465 50 -590 66 -824 91 -1060 115 -135 14 -283 32 -330
41 -52 9 -124 14 -185 12 l-100 -3 -107 -155 c-59 -85 -116 -174 -127 -196
-12 -23 -28 -47 -36 -54 -17 -14 -20 -53 -5 -81 9 -16 22 -19 75 -19 36 0 174
-13 308 -30 133 -16 352 -41 487 -55 135 -14 344 -36 465 -50 121 -13 389 -43
595 -65 358 -39 1196 -132 1665 -184 121 -14 391 -43 600 -66 l380 -41 130 30
c130 30 698 171 2535 630 l985 246 -1 42 c0 29 -8 51 -25 71 -13 17 -43 54
-67 83 -24 30 -84 102 -134 162 -89 104 -93 107 -132 106 -23 0 -81 -11 -131
-25z M11095 8775 c-16 -8 -104 -37 -195 -66 -91 -28 -257 -81 -370 -119 -113
-37 -320 -105 -460 -150 -272 -87 -754 -244 -1545 -502 -269 -88 -566 -185
-660 -215 -182 -59 -710 -231 -965 -315 l-155 -51 -330 32 c-181 17 -409 38
-505 46 -96 8 -240 22 -320 30 -80 8 -251 24 -380 35 -129 11 -269 25 -310 30
-41 5 -190 19 -330 30 -140 11 -325 27 -410 35 -85 8 -202 20 -260 26 -58 5
-301 28 -540 49 -239 22 -565 51 -723 66 -283 26 -289 27 -307 8 -22 -23 -140
-427 -140 -481 0 -22 39 -31 221 -47 96 -9 273 -25 394 -36 121 -11 344 -31
495 -45 151 -13 469 -42 705 -64 237 -22 495 -45 575 -51 80 -6 197 -17 260
-25 63 -8 228 -24 365 -35 138 -11 288 -24 335 -30 47 -5 218 -21 380 -35 374
-32 518 -49 530 -61 10 -10 -84 -524 -230 -1260 -22 -110 -51 -259 -64 -330
-62 -323 -160 -834 -211 -1099 -31 -159 -81 -418 -111 -575 -57 -301 -98 -509
-269 -1390 -141 -719 -132 -667 -109 -690 19 -20 417 -140 462 -140 30 0 56
58 71 155 6 39 45 246 86 460 161 829 330 1707 380 1970 20 105 44 228 55 275
10 47 26 128 35 180 9 52 38 208 66 345 27 138 70 358 95 490 24 132 62 330
84 440 22 110 82 424 135 699 52 274 97 502 100 507 3 4 216 78 473 163 257
85 532 177 612 204 80 28 825 276 1655 553 831 276 1539 514 1575 528 l65 27
-1 44 c0 37 -15 72 -83 195 -46 83 -95 162 -109 178 -29 31 -68 35 -117 12z
M11400 7982 c-128 -64 -748 -365 -1290 -627 -168 -81 -388 -188 -490 -238
-102 -49 -239 -115 -305 -147 -66 -32 -291 -141 -500 -242 -209 -102 -504
-245 -655 -318 -151 -73 -280 -138 -287 -144 -6 -6 -46 -135 -88 -286 -74
-265 -100 -356 -255 -910 -66 -235 -119 -427 -222 -795 -21 -77 -52 -188 -68
-246 -16 -59 -44 -162 -64 -230 -19 -68 -49 -176 -66 -239 -18 -63 -49 -173
-70 -245 -21 -71 -66 -231 -100 -355 -34 -124 -97 -351 -140 -505 -43 -154
-115 -413 -160 -575 -45 -162 -97 -348 -116 -414 -22 -74 -34 -134 -32 -160
l3 -41 115 -17 c79 -12 162 -17 264 -15 l148 2 110 390 c119 425 229 817 458
1625 82 289 212 752 290 1030 78 278 169 600 202 715 33 116 100 354 148 529
49 175 94 324 102 331 7 7 546 275 1198 595 652 321 1398 688 1658 816 261
128 489 239 508 246 33 12 34 13 34 69 0 32 -6 70 -14 86 -7 15 -33 87 -56
158 -66 198 -66 200 -120 202 -36 2 -64 -7 -140 -45z M2126 6903 c-18 -55 -36
-247 -36 -380 0 -136 2 -152 18 -157 9 -3 232 -60 495 -126 263 -66 530 -134
592 -150 62 -17 160 -41 217 -54 134 -31 1453 -363 1497 -378 l34 -10 -7 -62
c-3 -33 -17 -198 -31 -366 -13 -168 -34 -402 -45 -520 -24 -251 -61 -689 -95
-1120 -14 -168 -31 -372 -40 -455 -14 -147 -29 -319 -80 -954 -23 -279 -24
-316 -11 -330 9 -10 101 -59 207 -111 151 -74 202 -94 245 -98 l54 -4 0 45 c0
25 9 142 20 259 34 374 59 657 75 868 9 113 20 241 25 285 6 44 21 226 35 405
14 179 30 361 35 405 5 44 21 217 35 385 31 377 77 913 110 1290 40 459 39
444 24 456 -8 7 -306 89 -664 184 -357 95 -713 190 -790 210 -153 42 -764 204
-915 243 -162 43 -476 126 -697 187 -263 73 -299 79 -307 53z M11820 6706 c-8
-7 -53 -34 -100 -58 -47 -25 -278 -152 -515 -283 -236 -131 -455 -252 -485
-268 -30 -17 -116 -64 -190 -105 -201 -111 -318 -175 -427 -233 -54 -29 -129
-71 -168 -95 -38 -23 -124 -70 -190 -104 -216 -114 -234 -127 -262 -195 -134
-331 -246 -607 -298 -735 -212 -527 -392 -972 -495 -1225 -137 -335 -334 -823
-395 -975 -23 -58 -128 -317 -234 -577 -105 -260 -191 -485 -191 -502 0 -30 2
-31 43 -31 83 1 521 107 561 137 19 14 62 110 181 403 86 212 167 412 180 445
12 33 55 139 95 235 39 96 82 202 94 235 13 33 58 143 101 245 42 102 85 208
95 235 10 28 56 142 102 255 47 113 195 480 331 815 135 336 256 634 269 663
26 61 -34 23 503 319 540 298 920 507 980 539 33 17 85 47 116 65 30 19 124
70 208 114 84 44 166 92 182 107 27 24 29 31 29 100 0 122 -21 439 -31 464 -6
19 -16 24 -42 24 -18 0 -39 -6 -47 -14z M2080 5848 c0 -127 53 -531 74 -562 7
-11 44 -29 87 -42 41 -13 209 -73 374 -134 165 -61 396 -145 514 -187 118 -42
225 -86 238 -97 l23 -21 10 -485 c15 -730 28 -1194 41 -1405 l12 -190 96 -93
c53 -51 163 -149 244 -218 121 -102 154 -125 175 -122 l27 3 0 120 c0 66 -6
269 -13 450 -7 182 -26 779 -42 1329 -31 1063 -30 1046 -78 1046 -17 0 -210
70 -897 325 -154 58 -318 117 -365 133 -47 16 -130 46 -185 66 -55 21 -131 49
-170 64 -86 32 -165 41 -165 20z M11553 4627 c-43 -35 -206 -165 -363 -290
-371 -296 -376 -301 -407 -361 -14 -28 -144 -249 -288 -491 -145 -242 -279
-467 -298 -500 -20 -33 -53 -87 -73 -120 -21 -33 -50 -83 -65 -111 -15 -28
-68 -117 -118 -197 -50 -81 -91 -149 -91 -152 0 -3 -31 -56 -70 -119 -38 -62
-70 -118 -70 -123 0 -5 -9 -18 -20 -28 -12 -11 -20 -31 -20 -52 0 -31 2 -33
36 -33 84 0 580 401 854 691 279 295 387 432 550 704 57 94 129 206 161 250
115 159 411 821 427 953 l5 42 -36 0 c-30 0 -51 -12 -114 -63z" fill="#FFFFFF"/>
</g>
</svg>